<!-- Generated by IcoMoon.io -->
<svg version="1.1" xmlns="http://www.w3.org/2000/svg" width="1024" height="1024" viewBox="0 0 1024 1024">
<title>RC</title>
<g id="icomoon-ignore">
</g>
<path fill="#181619" d="M398.552 647.324l1.439-4.581q0.265-0.876 1.025-1.373 8.417-5.556 12.055-7.359 36.728-18.108 90.043-40.896 15.875-6.797 32.644-19.398c0.458-0.334 0.991-0.521 1.538-0.546h0.017q58.491-1.902 116.882-3.936c7.64-0.265 29.684-2.481 35.72 1.158 24.309 14.718 50.090 28.807 74.532 43.69q7.326 4.448-0.843 1.869c-3.44-1.091-6.797-2.96-11.129-3.109q-6.664-0.232-13.296-0.893c-6.168-0.612-11.84-5.259-17.661-7.475-0.073-0.033-0.155-0.051-0.245-0.051-0.337 0-0.612 0.275-0.612 0.612 0 0.177 0.074 0.336 0.195 0.448v0c8.731 8.649 18.736 14.999 25.384 26.112q0.281 0.463-0.265 0.446l-14.586-0.595c-0.981-0.041-1.816-0.724-2.064-1.675l-0.003-0.012c-0.595-2.282-1.703-3.539-3.721-4.994q-8.996-6.449-16.338-14.8-2.001-2.282-4.763-3.258-1.24-0.43-0.38 0.579c6.846 8.020 11.675 14.321 12.733 23.929 0.012 0.088 0.013 0.189 0.003 0.289-0.071 0.764-0.756 1.325-1.528 1.253-0.099-0.010-0.195-0.028-0.288-0.056l0.008 0.002c-5.821-1.819-10.236-4.448-16.388-4.399q-91.912 0.86-183.592 7.111-11.84 0.81-23.978 1.356c-0.035-0.002-0.066 0.010-0.089 0.035-0.043 0.048-0.035 0.126 0.020 0.175 0.025 0.023 0.056 0.036 0.088 0.038v0c12.634 0.099 26.095 1.521 37.687 1.786 65.304 1.422 130.707 3.506 196.011 1.604q9.476-0.281 33.041-0.066 31.387 0.265 62.493-4.333c5.573-0.827 12.303-1.24 17.761-0.248q50.619 9.161 104.463 13.312 6.482 0.496 11.212 0.298 0.843-0.033 1.406 0.595c12.105 13.13 28.063 23.697 42.979 33.371q0.711 0.463 0.711 1.306 0.050 34.38 0.017 68.496c0 8.268 21.233 33.537 8.864 34.876q-0.281 0.033-4.481-0.38-30.692-2.96-61.203-7.508-0.843-0.132-1.323 0.579-6.4 9.459-9.244 12.981c-39.738 49.247-112.533 28.708-131.683-27.848q-0.281-0.827-1.158-0.876c-88.373-5.408-176.035-6.565-265.35-9.327q-0.943-0.017-0.876-0.959c1.819-26.856-4.316-49.594-35.025-50.388q-35.488-0.926-70.96-1.521c-0.008 0-0.017 0-0.026 0-0.456 0-0.827 0.37-0.827 0.827 0 0.174 0.053 0.334 0.144 0.466l-0.002-0.003 63.849 96.592c0.043 0.061 0.081 0.137 0.106 0.218 0.132 0.428-0.116 0.883-0.552 1.017-0.079 0.025-0.159 0.036-0.238 0.038h0.007q-52.273 0.496-104.778 0.91-5.904 0.050-21.283-0.695-0.81-0.033-1.257-0.711c-8.186-12.171-18.091-24.177-25.5-35.521q-40.218-61.583-80.369-123.183c-10.005-15.346-24.971-36.431-36.629-55.266q-1.769-2.861-6.218-2.762-39.209 0.827-78.666 0.628c-0.466 0-0.843 0.377-0.843 0.843v0l0.331 215.393c0 0.529-0.422 0.959-0.943 0.959v0l-131.7-0.149c-0.587-0.010-1.058-0.486-1.058-1.075 0 0 0 0 0 0v0l0.215-591.72q0-0.695 0.695-0.695 124.456-1.009 248.863 1.455c45.245 0.893 99.85 3.142 143.788 19.861 50.404 19.183 84.173 74.118 89.316 126.424 0.036 0.278 0.273 0.491 0.557 0.491 0.184 0 0.347-0.088 0.45-0.225l0.002-0.002q20.522-29.188 44.65-54.803c39.308-41.739 90.49-70.712 145.888-84.983 64.659-16.653 136.181-19.778 203.387-5.457 52.306 11.146 100.412 33.719 145.756 61.666q0.744 0.463 0.215 1.158c-1.108 1.455-2.778 2.679-3.704 4.118q-31.833 49.181-60.608 99.601c-0.471 0.827-1.346 1.376-2.35 1.376-0.513 0-0.991-0.142-1.399-0.39l0.012 0.007c-72.018-42.963-153.859-59.764-236.246-40.366-51.215 12.072-84.669 39.87-112.484 83.792q-1.174 1.836-3.34 1.836l-123.365 0.43q-0.91 0.017-1.025 0.91c-6.83 53.596-35.968 92.97-83.875 117.395-14.238 7.26-30.577 13.296-45.741 19.563q-3.010 1.257-1.29 4.018 22.11 35.571 45.394 68.115 4.217 5.904 4.167 12.353-0.017 2.15 0.628 0.099zM188.9 463.881q37.853 0.711 81.014-1.455c30.378-1.521 55.63-9.261 68.215-39.606 9.062-21.845 9.376-53.166-7.739-71.803-18.472-20.109-53.034-22.11-79.393-23.234q-27.319-1.174-116.949-2.299c-0.003 0-0.005 0-0.008 0-0.43-0.005-0.781 0.271-0.786 0.618 0 0.003 0 0.007 0 0.010v0l0.463 138.926q0 0.612 0.562 0.413 2.017-0.695 3.142-0.761 23.548-1.323 51.479-0.81z"></path>
<path fill="#0e0c0f" d="M798.346 798.537c0.074 0.051 0.122 0.136 0.122 0.233 0 0.155-0.126 0.281-0.281 0.281-0.008 0-0.017 0-0.025-0.002h0.002l-280.018 3.125q-1.257 0.017-0.595-1.058 6.747-10.931 10.699-23.152 0.281-0.86 1.191-0.843c14.883 0.364 30.692 1.472 44.55 1.654 49.081 0.678 98.262 2.348 147.36 3.688 16.041 0.43 38.316-0.265 53.877 1.224 7.194 0.678 16.735 9.873 23.119 14.85z"></path>
</svg>
